<?xml version="1.0" encoding="utf-8"?>
 <!DOCTYPE svg PUBLIC "-//W3C//DTD SVG 1.1//EN" "http://www.w3.org/Graphics/SVG/1.1/DTD/svg11.dtd">
<svg version="1.1" xmlns="http://www.w3.org/2000/svg" xmlns:xlink="http://www.w3.org/1999/xlink"   width="100px" height="100px"  x="0px" y="0px" viewBox="0 0 1000 1000" enable-background="new 0 0 1000 1000" xml:space="preserve">
 <g><g transform="translate(0.000000,511.000000) scale(0.100000,-0.100000)"><path fill="#FFE565" d="M4128.6,4888.1c-663.4-346.6-1180.3-831.8-1566.5-1475.4c-752.5-1253.6-740.7-2839.9,31.7-4087.5c235.7-376.3,633.7-812,976.3-1069.4c501-372.3,1093.2-629.7,1697.2-738.7c281.2-51.5,879.3-61.4,1182.3-21.8c1291.2,170.3,2424,974.4,3008.2,2136.8c59.4,118.8,107,237.6,107,263.4c0,61.4-83.2,146.5-142.6,146.5c-25.7,0-116.8-27.7-204-61.4C7796.3-575.8,6180.3-179.7,5174.3,970.9c-303,346.6-576.3,821.9-716.9,1249.6c-136.6,419.8-190.1,808-174.3,1277.3c13.9,443.6,89.1,796.1,253.5,1214c63.4,158.4,61.4,223.8-7.9,271.3C4455.4,5034.6,4374.2,5016.8,4128.6,4888.1z M4089,4337.5c-235.7-891.2-136.6-1861.5,275.3-2701.2C4962.4,420.4,6099.1-385.6,7451.7-554c128.7-13.8,330.7-19.8,584.2-11.9c384.2,11.9,560.4,35.7,893.2,122.8c69.3,17.8,130.7,27.7,136.6,21.8c5.9-6-33.7-75.3-85.2-154.5C8434-1399.6,7614.1-1960,6665.5-2156.1C5247.5-2447.2,3774.1-1849.2,2950.3-649c-1136.7,1657.6-701,3933,968.4,5049.9c112.9,77.2,207.9,134.7,211.9,130.7C4136.6,4527.7,4116.7,4440.5,4089,4337.5z"/><path fill="gray" d="M474.8-2017.5c-23.8-23.8-39.6-65.4-39.6-108.9s15.8-85.1,39.6-108.9c39.6-39.6,65.4-39.6,1364.5-39.6h1326.9l39.6,51.5c55.5,69.3,51.5,136.6-7.9,196l-47.5,49.5H1831.4C540.2-1977.9,514.4-1977.9,474.8-2017.5z"/><path fill="gray" d="M2368.1-3267.1c-39.6-31.7-51.5-57.4-51.5-116.9s11.9-85.1,51.5-116.9c53.5-41.6,63.4-41.6,1653.6-41.6c1146.6,0,1614,5.9,1649.7,21.8c69.3,31.7,103,120.8,73.3,194.1c-13.8,29.7-47.5,65.4-73.3,79.2c-35.7,15.8-503,21.8-1649.7,21.8C2431.4-3225.5,2421.5-3225.5,2368.1-3267.1z"/><path fill="gray" d="M1726.4-4538.5c-55.5-57.4-55.5-132.7-2-200l39.6-51.5h1326.9c1299.1,0,1324.9,0,1364.5,39.6c23.8,23.8,39.6,65.3,39.6,108.9c0,43.6-15.8,85.1-39.6,108.9c-39.6,39.6-65.3,39.6-1362.5,39.6H1768L1726.4-4538.5z"/></g></g>
</svg>