<?xml version="1.0" encoding="utf-8"?>
 <!DOCTYPE svg PUBLIC "-//W3C//DTD SVG 1.1//EN" "http://www.w3.org/Graphics/SVG/1.1/DTD/svg11.dtd">
<svg   version="1.1" xmlns="http://www.w3.org/2000/svg" xmlns:xlink="http://www.w3.org/1999/xlink" x="0px" y="0px" viewBox="0 0 1000 1000" enable-background="new 0 0 1000 1000" xml:space="preserve">
 <g><path fill="orange" d="M473.9,285.4c2.2,3.6,6.1,5.5,10.1,5.5c2.2,0,4.4-0.6,6.4-1.8c5.5-3.4,7.3-10.9,3.8-16.5l-50.7-81c-3.5-5.5-10.9-7.3-16.5-3.7c-5.6,3.4-7.3,10.9-3.7,16.5L473.9,285.4L473.9,285.4z M770.4,714.6c-3.5-5.6-10.9-7.3-16.5-3.8c-5.6,3.5-7.3,10.9-3.8,16.5l50.7,81c2.2,3.7,6.1,5.7,10.1,5.7c2.2,0,4.3-0.6,6.4-1.8c5.6-3.6,7.3-10.9,3.7-16.5L770.4,714.6L770.4,714.6z M304,339.7l83.8,45.8c1.9,1,3.8,1.4,5.8,1.4c4.2,0,8.3-2.2,10.5-6.2c3.1-5.8,1-13-4.7-16.2l-83.9-45.8c-5.8-3.1-13.1-1-16.3,4.8C296,329.2,298.2,336.5,304,339.7L304,339.7z M940.3,660.3l-83.8-45.8c-5.8-3.2-13.1-1-16.3,4.7c-3.1,5.8-1,13,4.8,16.2l83.9,45.8c1.8,1,3.7,1.5,5.7,1.5c4.2,0,8.3-2.2,10.5-6.2C948.3,670.7,946.2,663.4,940.3,660.3L940.3,660.3z M978,487.4L978,487.4l-95.5,0.2c-6.6,0-12,5.4-12,12c0.1,6.6,5.4,12,12,12l0,0l95.6-0.3c6.6,0,11.9-5.4,11.9-12C990,492.7,984.6,487.4,978,487.4L978,487.4z M851.7,389.4c1.9,0,3.9-0.4,5.7-1.3l84.2-45.1c5.8-3.1,8-10.4,4.9-16.2c-3.1-5.8-10.3-8.1-16.1-4.9L846,366.9c-5.8,3.1-8,10.3-4.9,16.2C843.3,387.1,847.5,389.4,851.7,389.4L851.7,389.4z M752.9,288.9c1.9,1.2,4.1,1.8,6.3,1.8c4,0,7.9-2,10.2-5.7l50.3-81.1c3.4-5.6,1.7-13-3.9-16.5c-5.6-3.5-13-1.7-16.5,3.9L749,272.4C745.5,278.1,747.3,285.4,752.9,288.9L752.9,288.9z M622.1,251.7c6.6,0,12-5.4,12-12v-95.5c0-6.6-5.4-11.9-12-11.9c-6.6,0-11.9,5.3-11.9,11.9v95.5C610.2,246.3,615.5,251.7,622.1,251.7L622.1,251.7z
	M812.6,503.9c0-106.5-86.6-193.1-193.1-193.1c-65.1,0-121.4,27.9-157.4,82.3c-3.6,5.5-2.1,13,3.4,16.6c5.5,3.7,12.9,2.1,16.6-3.4c31.5-47.7,80.4-71.5,137.4-71.5c93.3,0,169.2,75.9,169.2,169.2c0,57.7-29,110.9-77.6,142.2c-5.5,3.6-7.1,11-3.5,16.5c2.2,3.5,6.1,5.5,10,5.5c2.2,0,4.5-0.6,6.4-1.9C779.6,630.5,812.6,569.7,812.6,503.9L812.6,503.9z "/></g> <g><path fill="gray" d="M574.8,843.8H163.8c-2.7,0-5.5,0-8.2,0.2v-0.2c-67.1,0-121.7-54.7-121.7-121.8c0-67.1,54.6-121.7,121.7-121.7c9.4,0,19.4,1.3,29.4,3.7c3.3,0.8,6.7,0.3,9.5-1.6c2.8-1.8,4.6-4.8,5.2-8.1c13.6-86.6,87.1-149.5,174.8-149.5c97.7,0,177.1,79.5,177.1,177.2c0,4.8-0.3,9.5-0.7,14.2c-0.3,3.5,1,7,3.6,9.5c2.5,2.5,6.1,3.7,9.6,3.4c3.5-0.5,7.1-0.6,10.8-0.6c53.9,0,97.7,43.7,97.7,97.6C672.4,799.9,628.6,843.8,574.8,843.8L574.8,843.8z M575.5,624.5c66.7,0.4,120.9,54.7,120.9,121.5c0,67-54.5,121.5-121.6,121.5H264.3c-60.8,0-106.7,0-108.5,0c-0.1,0-0.1,0-0.1,0C75.3,867.6,10,802.3,10,722.1c0-80.3,65.3-145.6,145.6-145.6c7.4,0,15.1,0.6,22.8,1.9C198.5,486.4,279.1,421,374.4,421c110.8,0,201,90.2,201,201C575.5,622.8,575.5,623.6,575.5,624.5z"/></g>
</svg>