<?xml version="1.0" encoding="utf-8"?>
 <!DOCTYPE svg PUBLIC "-//W3C//DTD SVG 1.1//EN" "http://www.w3.org/Graphics/SVG/1.1/DTD/svg11.dtd">
<svg  width="100px" height="100px" fill="gray" version="1.1" xmlns="http://www.w3.org/2000/svg" xmlns:xlink="http://www.w3.org/1999/xlink" x="0px" y="0px" viewBox="0 0 1000 1000" enable-background="new 0 0 1000 1000" xml:space="preserve">
 <g><g transform="translate(0.000000,511.000000) scale(0.100000,-0.100000)"><path d="M7722.9,2851.5c-47.4-12.9-148.7-36.6-226.3-53.9c-232.8-49.6-472-181-670.3-370.7l-174.6-166l-133.6,64.7c-107.8,51.7-163.8,64.7-314.6,71.1c-293.1,10.8-525.8-90.5-754.3-331.9l-112.1-118.5l-101.3,34.5c-140.1,49.6-422.4,66.8-564.7,32.3c-64.7-15.1-181-56-258.6-90.5l-142.2-64.6l-191.8,194c-433.2,437.5-896.6,627.2-1474.1,601.3c-396.6-17.2-678.9-112.1-1021.6-344.8c-375-254.3-706.9-737.1-831.9-1211.2c-79.7-308.2-97-592.7-53.9-896.6l36.6-265.1l-60.4-41c-34.5-23.7-127.2-109.9-206.9-189.7C220.7-545.1,97.9-861.9,100-1243.3c0-663.8,441.8-1239.2,1049.6-1366.4c226.3-47.4,6066.8-47.4,6293.1,0c551.7,114.2,984.9,622.8,1056,1234.9l15.1,133.6h174.6c392.2,0,637.9,86.2,857.8,295.2c465.5,444,472,1137.9,17.3,1584.1l-153,150.9l25.9,183.2c47.4,331.9-8.6,646.6-172.4,987.1c-209.1,431-534.5,713.4-976.3,849.1C8115.2,2860.1,7843.6,2881.7,7722.9,2851.5z M8171.2,2519.6c459.1-118.5,816.8-500,933.2-997.8c41-172.4,45.3-560.4,8.6-713.4c-32.3-135.8-12.9-170.3,137.9-271.6c230.6-153,347-405.2,331.9-717.7c-10.8-228.4-75.4-377.2-222-523.7C9190.6-877,9104.4-905,8768.2-913.6l-293.1-6.5l-47.4,146.5C8360.9-562.3,8210-318.8,8063.4-183c-168.1,155.2-476.3,314.7-648.7,334.1l-125,12.9l-25.9,92.7c-41,155.2-297.4,411.7-500,502.2c-81.9,36.6-415.9,49.6-521.6,21.6c-51.7-15.1-58.2-10.8-71.1,53.9c-77.6,400.9-153,551.7-409.5,829.8l-118.5,127.2l105.6,99.1c163.8,153,265.1,196.1,454.7,198.3c163.8,0,211.2-15.1,400.9-129.3c97-58.2,163.8-30.2,271.6,109.9c161.6,209.1,418.1,377.2,685.4,448.3C7716.5,2558.4,8016,2560.6,8171.2,2519.6z M3110.8,2306.3c327.6-88.4,678.9-319,881.5-577.6c58.2-75.4,120.7-148.7,140.1-161.6c51.7-45.2,122.8-32.3,252.2,41c390.1,219.8,857.8,144.4,1185.4-187.5c217.7-222,327.6-530.2,299.6-844.8c-10.8-140.1-8.6-157.3,36.6-198.3c73.3-69,172.4-53.9,325.4,49.6C6505.2,612.3,6944.9,386,7011.7,26c21.6-109.9,60.3-135.8,262.9-163.8c340.5-47.4,633.6-252.1,778-547.4c36.6-75.4,86.2-234.9,109.9-353.4c40.9-202.6,43.1-232.8,15.1-390.1c-75.4-435.3-375-773.7-782.3-879.3c-105.6-28-530.2-32.3-3092.7-32.3c-2099.2,0-3002.2,6.4-3081.9,23.7c-191.8,41-340.5,125-493.5,275.8c-222,222-321.1,478.5-321.1,821.1c0,398.7,163.8,704.7,493.5,922.4c163.8,112.1,168.1,118.5,125,342.7c-47.4,241.4-47.4,644.4-2.2,862.1c150.9,734.9,709.1,1303.9,1405.2,1428.9C2576.3,2364.4,2962.1,2347.2,3110.8,2306.3z"/></g></g>
</svg>