<svg class="sunshine none " width="100px" height="100px" fill="orange" xmlns="http://www.w3.org/2000/svg" xmlns:xlink="http://www.w3.org/1999/xlink" viewBox="0 0 512 512">
    <path class="sun-full" d="M256,144c-61.8,0-112,50.2-112,111.5s50.2,112,112,111.5s112-50.2,112-111.5S317.8,144,256,144z M256,336
        c-44.2,0-80-35.8-80-80s35.8-80,80-80s80,35.8,80,80S300.2,336,256,336z" />
    <path class="sun-ray-eight" d="M131.6,357.8l-22.6,22.6c-6.2,6.2-6.2,16.4,0,22.6s16.4,6.2,22.6,0l22.6-22.6c6.2-6.3,6.2-16.4,0-22.6
        C147.9,351.6,137.8,351.6,131.6,357.8z" />
    <path class="sun-ray-seven" d="M256,400c-8.8,0-16,7.2-16,16v32c0,8.8,7.2,16,16,16s16-7.2,16-16v-32C272,407.2,264.8,400,256,400z" />
    <path class="sun-ray-six" d="M380.5,357.8c-6.3-6.2-16.4-6.2-22.6,0c-6.3,6.2-6.3,16.4,0,22.6l22.6,22.6c6.2,6.2,16.4,6.2,22.6,0
        s6.2-16.4,0-22.6L380.5,357.8z" />
    <path class="sun-ray-five" d="M448,240h-32c-8.8,0-16,7.2-16,16s7.2,16,16,16h32c8.8,0,16-7.2,16-16S456.8,240,448,240z" />
    <path class="sun-ray-four" d="M380.4,154.2l22.6-22.6c6.2-6.2,6.2-16.4,0-22.6s-16.4-6.2-22.6,0l-22.6,22.6c-6.2,6.2-6.2,16.4,0,22.6
        C364.1,160.4,374.2,160.4,380.4,154.2z" />
    <path class="sun-ray-three" d="M256,112c8.8,0,16-7.2,16-16V64c0-8.8-7.2-16-16-16s-16,7.2-16,16v32C240,104.8,247.2,112,256,112z" />
    <path class="sun-ray-two" d="M131.5,154.2c6.3,6.2,16.4,6.2,22.6,0c6.3-6.2,6.3-16.4,0-22.6l-22.6-22.6c-6.2-6.2-16.4-6.2-22.6,0
        c-6.2,6.2-6.2,16.4,0,22.6L131.5,154.2z" />
    <path class="sun-ray-one" d="M112,256c0-8.8-7.2-16-16-16H64c-8.8,0-16,7.2-16,16s7.2,16,16,16h32C104.8,272,112,264.8,112,256z" />
  
        <style type="text/css"><![CDATA[
/* Sunshine Animation */
/* If only using this animation be sure to grab the sun-grow and ray-show-x keyframes set above */
.sunshine .sun-full {
  animation: sun-grow 1.5s infinite cubic-bezier(0.2, 0.85, 0.4, 1.5);
  transform-origin: center center;
}

.sunshine .sun-ray-one {
  animation: ray-show-one 1.5s infinite ease-in;
  transform-origin: center right;
}

.sunshine .sun-ray-two {
  animation: ray-show-two 1.5s infinite ease-in;
  transform-origin: bottom right;
}

.sunshine .sun-ray-three {
  animation: ray-show-three 1.5s infinite ease-in;
  transform-origin: bottom center;
}

.sunshine .sun-ray-four {
  animation: ray-show-four 1.5s infinite ease-in;
  transform-origin: bottom left;
}

.sunshine .sun-ray-five {
  animation: ray-show-five 1.5s infinite ease-in;
  transform-origin: center left;
}

.sunshine .sun-ray-six {
  animation: ray-show-six 1.5s infinite ease-in;
  transform-origin: top left;
}

.sunshine .sun-ray-seven {
  animation: ray-show-seven 1.5s infinite ease-in;
  transform-origin: top center;
}

.sunshine .sun-ray-eight {
  animation: ray-show-eight 1.5s infinite ease-in;
  transform-origin: top right;
}
@keyframes sun-grow {
  0%, 90%, 100% {
    transform: scale(0.5);
    opacity: 0;
  }
  15%, 80% {
    transform: scale(1);
    opacity: 1;
  }
}@keyframes sun-grow {
  0%, 90%, 100% {
    transform: scale(0.5);
    opacity: 0;
  }
  15%, 80% {
    transform: scale(1);
    opacity: 1;
  }
}

@keyframes ray-show-one {
  0%, 15%, 80%, 100% {
    transform: scale(0.5);
    opacity: 0;
  }
  20%, 70% {
    transform: scale(1);
    opacity: 1;
  }
}

@keyframes ray-show-two {
  0%, 20%, 80%, 100% {
    transform: scale(0.5);
    opacity: 0;
  }
  25%, 70% {
    transform: scale(1);
    opacity: 1;
  }
}

@keyframes ray-show-three {
  0%, 25%, 80%, 100% {
    transform: scale(0.5);
    opacity: 0;
  }
  30%, 70% {
    transform: scale(1);
    opacity: 1;
  }
}

@keyframes ray-show-four {
  0%, 30%, 80%, 100% {
    transform: scale(0.5);
    opacity: 0;
  }
  35%, 70% {
    transform: scale(1);
    opacity: 1;
  }
}

@keyframes ray-show-five {
  0%, 35%, 80%, 100% {
    transform: scale(0.5);
    opacity: 0;
  }
  40%, 70% {
    transform: scale(1);
    opacity: 1;
  }
}

@keyframes ray-show-six {
  0%, 40%, 80%, 100% {
    transform: scale(0.5);
    opacity: 0;
  }
  45%, 70% {
    transform: scale(1);
    opacity: 1;
  }
}

@keyframes ray-show-seven {
  0%, 45%, 80%, 100% {
    transform: scale(0.5);
    opacity: 0;
  }
  50%, 70% {
    transform: scale(1);
    opacity: 1;
  }
}

@keyframes ray-show-eight {
  0%, 50%, 80%, 100% {
    transform: scale(0.5);
    opacity: 0;
  }
  55%, 70% {
    transform: scale(1);
    opacity: 1;
  }
}
        ]]></style>
 </svg>