<?xml version="1.0" encoding="utf-8"?>
 <!DOCTYPE svg PUBLIC "-//W3C//DTD SVG 1.1//EN" "http://www.w3.org/Graphics/SVG/1.1/DTD/svg11.dtd">
<svg  width="20px" height="20px" fill="#7F3FBF" version="1.1" xmlns="http://www.w3.org/2000/svg" xmlns:xlink="http://www.w3.org/1999/xlink" x="0px" y="0px" viewBox="0 0 1000 1000" enable-background="new 0 0 1000 1000" xml:space="preserve">
 <g><path d="M10,518.9v-37.6c226.2-376.9,753.8-376.9,980-0.1v37.6C763.8,895.7,236.2,895.7,10,518.9z M500,273.8c-125,0-226.1,101.3-226.1,226.2C273.9,625,375,726.1,500,726.1c124.8,0,226.1-101.1,226.1-226.1C726.1,375.1,624.8,273.8,500,273.8z"/><path d="M613.1,500c0-62.5-50.6-113.1-113.1-113.1c-62.4,0-113.1,50.6-113.1,113.1c0,62.6,50.6,113,113.1,113C562.4,613,613.1,562.6,613.1,500z"/></g>
</svg>