<?xml version="1.0" encoding="utf-8"?>
 <!DOCTYPE svg PUBLIC "-//W3C//DTD SVG 1.1//EN" "http://www.w3.org/Graphics/SVG/1.1/DTD/svg11.dtd">
<svg  width="100px" height="100px" fill="orange" version="1.1" xmlns="http://www.w3.org/2000/svg" xmlns:xlink="http://www.w3.org/1999/xlink" x="0px" y="0px" viewBox="0 0 1000 1000" enable-background="new 0 0 1000 1000" xml:space="preserve">
 <g><path d="M472,224.1c5.6,3.7,13.1,2.2,16.8-3.4c31.9-48.2,78.5-70.9,136.3-70.9c94.5,0,171.4,76.9,171.4,171.4c0,58.4-29.4,112.4-78.6,144.1c-5.6,3.6-7.2,11.1-3.6,16.7c2.3,3.6,6.1,5.5,10.2,5.5c2.2,0,4.6-0.6,6.5-1.9c56.1-36.3,89.7-97.7,89.7-164.5c0-107.9-87.7-195.6-195.6-195.6c-65.9,0-120.1,26.7-156.4,81.8C465,212.9,466.5,220.4,472,224.1L472,224.1z "/> <path fill="gray" d="M494.1,665.5c6.8,0,12.1,5.5,12.1,12.1c0,6.7-5.4,12.1-12.1,12.1H157.6C76.2,689.7,10,623.6,10,542.2c0-81.3,66.2-147.5,147.6-147.5c7.5,0,15.2,0.7,23,1.9c20.4-93.2,102-159.5,198.6-159.5c112.3,0,203.6,91.3,203.6,203.6c0,0.9,0,1.8,0,2.7c52.6,0.3,99.2,33.8,116,83.7c2.1,6.4-1.2,13.2-7.6,15.3c-6.3,2.2-13.2-1.2-15.3-7.6c-13.6-40.2-51.3-67.2-93.8-67.2c-3.7,0-7.3,0.3-10.9,0.6c-3.6,0.4-7.1-0.8-9.7-3.3c-2.6-2.6-3.9-6.1-3.6-9.7c0.4-4.7,0.8-9.6,0.8-14.4c0-98.9-80.5-179.3-179.4-179.3c-88.8,0-163.3,63.7-177,151.4c-0.6,3.3-2.4,6.3-5.3,8.2c-2.8,1.8-6.3,2.4-9.6,1.7c-10.2-2.5-20.2-3.8-29.7-3.8c-68.1,0-123.4,55.3-123.4,123.3c0,68.1,55.3,123.3,123.4,123.3L494.1,665.5L494.1,665.5z "/> <path fill="gray" d="M971.1,832.3c-0.3,0.2-27.2,17.8-80.4,17.8c-44.1,0-66.3-12.7-89.9-26.1c-25.8-14.8-55-31.5-112.7-31.5c-97.9,0-145.2,59.8-147.1,62.3c-4.1,5.3-3.1,12.9,2.2,17c5.2,4.1,12.8,3.1,16.9-2.1c1.7-2.2,42.4-53,128-53c51.3,0,75.3,13.7,100.8,28.2c25.3,14.5,51.4,29.4,101.9,29.4c61.4,0,92.8-21.2,94.1-22.1c3.4-2.4,5.2-6.1,5.2-10c0-2.3-0.8-4.7-2.1-6.7C984.2,830,976.6,828.6,971.1,832.3L971.1,832.3z"/> <path fill="gray" d=" M971.1,725.6c-0.3,0.1-27.2,17.8-80.4,17.8c-44.1,0-66.3-12.7-89.9-26.2c-25.8-14.7-55-31.4-112.7-31.4c-97.9,0-145.2,59.8-147.1,62.3c-4.1,5.3-3.1,12.8,2.2,16.9c5.2,4.1,12.8,3.2,16.9-2.1c1.7-2.1,42.4-52.9,128-52.9c51.3,0,75.3,13.7,100.8,28.2c25.3,14.5,51.4,29.4,101.9,29.4c61.4,0,92.8-21.2,94.1-22.1c5.5-3.8,6.9-11.2,3.1-16.7C984.2,723.3,976.6,721.8,971.1,725.6L971.1,725.6z"/> <path fill="gray" d="M688,579c-97.9,0-145.2,59.8-147.1,62.4c-4.1,5.2-3.1,12.8,2.2,16.9c5.2,4,12.8,3.1,16.9-2.1c1.7-2.2,42.4-53,128-53c51.3,0,75.3,13.7,100.8,28.3c25.3,14.4,51.4,29.3,101.9,29.3c61.4,0,92.8-21.2,94.1-22.1c3.4-2.4,5.2-6.2,5.2-10c0-2.4-0.8-4.6-2.1-6.8c-3.7-5.5-11.2-6.9-16.8-3.2c-0.3,0.2-27.2,17.8-80.4,17.8c-44.1,0-66.3-12.7-89.9-26.2C775,595.7,745.8,579,688,579z"/></g>
</svg>