<?xml version="1.0" encoding="utf-8"?>
 <!DOCTYPE svg PUBLIC "-//W3C//DTD SVG 1.1//EN" "http://www.w3.org/Graphics/SVG/1.1/DTD/svg11.dtd">
<svg  width="100px" height="100px" fill="gray" version="1.1" xmlns="http://www.w3.org/2000/svg" xmlns:xlink="http://www.w3.org/1999/xlink" x="0px" y="0px" viewBox="0 0 1000 1000" enable-background="new 0 0 1000 1000" xml:space="preserve">
 <g><g transform="translate(0.000000,511.000000) scale(0.100000,-0.100000)"><path d="M3887.3,4975c-1230.7-198.1-2172.3-1121.1-2403.1-2354.1c-30.3-163.2-35-296-28-601.3l11.7-389.2l-60.6-14c-186.5-37.3-349.6-88.6-475.5-151.5C540.2,1269,237.2,882.1,134.7,455.6C74,196.9,95-159.8,181.3-397.5c142.2-382.3,419.5-696.9,762.2-857.7c268-128.2,372.9-149.2,785.5-165.5l358.9-14l132.9-391.6c72.3-214.4,146.8-405.6,167.8-426.6c60.6-60.6,181.8-48.9,244.7,23.3c28,35,53.6,81.6,53.6,102.6c0,23.3-46.6,181.8-104.9,354.3c-58.3,172.5-104.9,321.7-104.9,331c0,9.3,1251.7,21,2780.7,25.6l2778.3,7l195.8,51.3c1144.4,305.3,1839,1389.2,1631.6,2545.3C9649.1,2366.9,8507,3154.7,7313.6,2947.2c-114.2-21-214.4-28-221.4-18.6c-9.3,9.3-35,76.9-58.3,146.8c-23.3,69.9-86.3,219.1-139.9,331c-386.9,783.1-1097.8,1337.9-1969.6,1536C4654.1,5003,4160,5019.3,3887.3,4975z M4563.2,4637.1c722.6-81.6,1342.6-426.5,1762.1-985.9c165.5-221.4,321.7-519.8,393.9-762.2c90.9-305.3,104.9-335.6,167.8-370.6c53.6-30.3,76.9-28,230.7,16.3c631.7,184.1,1216.7,79.3,1729.5-314.7c279.7-214.4,536.1-613,636.3-985.9c58.3-209.8,58.3-699.2,0-909c-179.5-655-671.3-1146.8-1333.2-1333.2l-184.1-53.6l-3197.9-7c-3524.2-7-3382-11.7-3687.3,137.5C715-749.5,449.3-315.9,449.3,103.6c0,641,540.8,1174.7,1191,1177.1c151.5,0,233.1,49,237.7,139.8c0,32.6-18.6,167.8-41.9,300.7c-135.2,785.5,128.2,1605.9,699.2,2181.6c405.6,407.9,932.3,664.3,1503.4,731.9C4285.8,4662.7,4327.8,4662.7,4563.2,4637.1z"/><path fill="#58A8D4" d="M4369.8-1756.4c-28-30.3-51.3-74.6-51.3-100.2c0-23.3,58.3-221.4,130.5-440.5c137.5-417.2,188.8-501.1,303-501.1c67.6,0,172.5,95.6,172.5,156.2c0,83.9-279.7,881-319.3,911.3C4542.2-1684.1,4425.7-1695.8,4369.8-1756.4z"/><path fill="#58A8D4"  d="M7171.4-1863.6c-111.9-51.3-247.1-179.5-303-289c-23.3-39.6-44.3-149.2-51.3-240.1c-16.3-268,97.9-466.2,338-582.7c251.7-123.5,531.4-72.2,717.9,135.2c118.9,130.5,158.5,235.4,158.5,414.9c2.3,251.7-132.9,454.5-368.3,561.7C7537.3-1805.3,7297.3-1805.3,7171.4-1863.6z M7595.6-2248.2c172.5-172.5,60.6-433.5-191.1-433.5c-65.3,0-102.6,18.6-165.5,81.6c-76.9,76.9-81.6,90.9-69.9,188.8c16.3,158.5,104.9,237.8,270.4,240.1C7497.7-2168.9,7535-2187.6,7595.6-2248.2z"/><path  fill="#58A8D4" d="M2878-3248.1c-28-30.3-51.3-74.6-51.3-100.2c0-23.3,58.3-221.4,130.5-440.5c137.5-417.2,188.8-501.1,303-501.1c67.6,0,172.5,95.5,172.5,156.2c0,83.9-279.7,881-319.3,911.3C3050.5-3175.8,2934-3187.5,2878-3248.1z"/><path  fill="#58A8D4" d="M5169.2-3565.1c-207.5-53.6-370.6-195.8-442.9-384.6c-49-130.5-39.6-382.2,21-498.8c151.5-293.7,540.8-419.5,832.1-265.7c382.3,200.5,449.8,708.6,132.9,995.3c-51.3,46.6-128.2,100.2-167.8,116.5C5444.3-3560.4,5257.8-3541.8,5169.2-3565.1z M5451.2-3959c181.8-146.8,109.6-433.5-118.9-461.5c-247.1-30.3-386.9,249.4-212.1,424.2c65.3,65.3,95.6,79.3,181.8,79.3C5362.7-3917,5423.3-3933.3,5451.2-3959z"/></g></g>
</svg>