<?xml version="1.0" encoding="utf-8"?>
 <!DOCTYPE svg PUBLIC "-//W3C//DTD SVG 1.1//EN" "http://www.w3.org/Graphics/SVG/1.1/DTD/svg11.dtd">
<svg width="20px" height="20px" fill="#58A8D4" version="1.1" xmlns="http://www.w3.org/2000/svg" xmlns:xlink="http://www.w3.org/1999/xlink" x="0px" y="0px" viewBox="0 0 1000 1000" enable-background="new 0 0 1000 1000" xml:space="preserve">
 <g><g><g><path d="M369.2,879c26.9,2.1,49.4-24,49.4-49.4c0-28.5-22.6-47.3-49.4-49.4c-16.4-1.2-26-5.9-35.1-15.4c1.6,1.4-1.3-3.1-3.2-6c0.3-0.5-3.2-9.3-3.3-9.5c-1.7-6.4-1.7-20.6-0.5-33.1c2.5-26.8-24.3-49.4-49.4-49.4c-28.8,0-46.9,22.6-49.4,49.4c-3.8,40.9,5.6,80.5,31.3,113C286.3,863,327.9,875.9,369.2,879z"/><path d="M130.2,781.4l1.1,11.5l1.3,0C153.2,905.6,251.7,990,369.1,990C501.9,990,610,882,610,749.2c0-15.9-1.6-31.9-4.7-47.4c-34-242.9-209.5-374.5-217-380L369,307.5l-19.2,14.4c-222.9,167.2-223.1,398-221.6,435.7c-0.3,2.5-0.3,5-0.2,7.4C127.6,770.6,128.4,776.2,130.2,781.4z M368.5,389.5c43.3,38.9,149,149.9,172.8,322.1l0.3,2c2.4,11.6,3.6,23.6,3.6,35.5c0,97.1-79,176.1-176.1,176.1c-93.6,0-170.7-73.3-175.6-166.8l-0.9-12.3C192.9,699.9,204.9,524.7,368.5,389.5z"/><path d="M744.4,20.7L729.9,10l-14.4,10.8C578.4,123.7,587.6,268.9,588.1,275l2.1,23l1.4,0c14.2,63.9,71,111,138.5,111c78.3,0,142-63.7,142-142c0-9.6-1-19.2-2.6-27.1C850.1,99.8,748.7,23.8,744.4,20.7z M730.1,360.5c-49.7,0-90.6-38.9-93.2-88.6l-0.5-7.5c0.2-25.9,7.2-119,93.2-192.7c25.7,24.1,79.4,84.4,92.1,176.4c1.3,6.2,1.9,12.5,1.9,18.9C823.6,318.5,781.6,360.5,730.1,360.5z"/><path d="M730.1,284.5c-9.2-0.7-14.7-3.3-19.8-8.7c0.9,0.8-0.7-1.8-1.8-3.4c0.2-0.3-1.8-5.2-1.9-5.4c-1-3.6-0.9-11.6-0.3-18.7c1.4-15.2-13.8-27.9-27.9-27.9c-16.3,0-26.5,12.8-27.9,27.9c-2.1,23.1,3.2,45.5,17.7,63.8c15.1,19,38.6,26.3,61.9,28.1c15.2,1.2,27.9-13.6,27.9-27.9C757.9,296.3,745.2,285.7,730.1,284.5z"/></g></g><g></g><g></g><g></g><g></g><g></g><g></g><g></g><g></g><g></g><g></g><g></g><g></g><g></g><g></g><g></g></g>
</svg>