<?xml version="1.0" encoding="utf-8"?>
 <!DOCTYPE svg PUBLIC "-//W3C//DTD SVG 1.1//EN" "http://www.w3.org/Graphics/SVG/1.1/DTD/svg11.dtd">
<svg  width="100px" height="100px" fill="#58A8D4" version="1.1" xmlns="http://www.w3.org/2000/svg" xmlns:xlink="http://www.w3.org/1999/xlink" x="0px" y="0px" viewBox="0 0 1000 1000" enable-background="new 0 0 1000 1000" xml:space="preserve">
<g><path  d="M115,773.2c-6.9-3.4-15-0.7-18.3,6.1l-48.8,97.1c-3.4,6.8-0.7,15,6.1,18.3c2,1,4,1.5,6.1,1.5c5.1,0,9.9-2.7,12.3-7.5l48.8-97.1C124.4,784.7,121.7,776.6,115,773.2L115,773.2z M647.9,809.2c-5.4-5.4-14.1-5.4-19.4,0l-14.8,14.8l-14.9-14.8c-5.3-5.4-14-5.4-19.4,0c-5.3,5.4-5.3,14,0,19.4l14.9,14.8l-14.9,14.9c-5.3,5.3-5.3,14,0,19.3c2.7,2.7,6.2,4,9.7,4c3.5,0,6.9-1.4,9.7-4l14.9-14.8l14.8,14.8c2.7,2.7,6.2,4,9.7,4c3.5,0,7-1.4,9.7-4c5.3-5.3,5.3-14,0-19.3L633,843.4l14.9-14.8C653.3,823.2,653.3,814.6,647.9,809.2L647.9,809.2z M289.1,773.2c-6.8-3.4-15-0.7-18.3,6.1l-48.8,97.1c-3.4,6.8-0.7,15,6.1,18.3c2,1,4,1.5,6.1,1.5c5,0,9.8-2.7,12.2-7.5l48.8-97.1C298.6,784.7,295.9,776.6,289.1,773.2L289.1,773.2z M463.2,773.2c-6.9-3.4-14.9-0.7-18.3,6.1L396,876.4c-3.4,6.8-0.7,15,6.1,18.3c2,1,4,1.5,6.1,1.5c5.1,0,9.8-2.7,12.2-7.5l48.8-97.1C472.6,784.7,469.9,776.6,463.2,773.2L463.2,773.2z"/> <path  fill="gray" d="M656,679.6H186c-3.1,0-6.3,0-9.3,0.3v-0.3c-76.8,0-139.2-62.5-139.2-139.3c0-76.8,62.4-139.2,139.2-139.2c10.9,0,22.2,1.5,33.6,4.3c3.7,0.9,7.6,0.3,10.8-1.9c3.3-2.1,5.4-5.5,6-9.2c15.5-99.1,99.6-171,199.9-171c111.7,0,202.6,90.9,202.6,202.6c0,5.5-0.4,10.9-0.9,16.3c-0.3,4.1,1.2,8.1,4.1,11c2.9,2.8,6.9,4.2,11.1,3.8c4-0.5,8.1-0.7,12.2-0.7c61.6,0,111.7,50,111.7,111.7C767.7,629.4,717.6,679.6,656,679.6L656,679.6z M823.5,281.7c-8.6,0-17.3,0.8-26,2.1c-23.1-105.1-115.3-180.1-224.3-180.1c-47.5,0-93,14.4-131.8,41.5c-6.2,4.4-7.7,12.8-3.3,19c4.4,6.2,12.9,7.7,19,3.3c34.1-23.9,74.3-36.5,116.1-36.5c100.2,0,184.3,71.9,199.9,171c0.5,3.8,2.7,7.1,5.9,9.2c3.2,2.1,7.1,2.7,10.9,1.9c11.4-2.8,22.6-4.3,33.6-4.3c76.8,0,139.2,62.5,139.2,139.2c0,71.6-53.6,131.1-124.8,138.5c-7.4,0.8-12.9,7.5-12.2,15c0.8,7,6.7,12.3,13.6,12.3c0.4,0,0.9,0,1.4-0.1c85.2-8.7,149.3-80,149.3-165.7C990,356.4,915.3,281.7,823.5,281.7L823.5,281.7z M656.8,428.8c0-0.9,0-1.9,0-2.9c0-126.8-103.1-229.9-229.9-229.9c-109,0-201.1,74.9-224.3,180.1c-8.7-1.5-17.5-2.2-26-2.2C84.8,373.8,10,448.5,10,540.3C10,632.2,84.8,707,176.6,707c1,0,54,0,124.3,0H656c76.7,0,139-62.4,139-139C795,491.5,733.1,429.2,656.8,428.8z"/></g>
</svg>