<?xml version="1.0" encoding="utf-8"?>
 <!DOCTYPE svg PUBLIC "-//W3C//DTD SVG 1.1//EN" "http://www.w3.org/Graphics/SVG/1.1/DTD/svg11.dtd">
<svg  width="100px" height="100px" fill="gray" version="1.1" xmlns="http://www.w3.org/2000/svg" xmlns:xlink="http://www.w3.org/1999/xlink" x="0px" y="0px" viewBox="0 0 1000 1000" enable-background="new 0 0 1000 1000" xml:space="preserve">
 
<g><g transform="translate(0.000000,512.000000) scale(0.100000,-0.100000)"><path d="M3702.5,4981.7c-266-70.8-534-264.1-671.8-486.2c-53.6-88-74.6-105.3-105.3-97.6c-21.1,7.7-116.8,17.2-212.5,23c-329.2,21-647-93.8-895.8-323.5c-419.2-382.8-585.7-953.2-424.9-1458.5c128.2-405.8,493.8-779,888.1-911.1c72.7-23,162.7-72.7,225.9-124.4c312-254.6,765.6-361.8,1217.3-287.1c181.8,28.7,206.7,30.6,246.9,3.8c65.1-42.1,233.5-101.4,390.5-139.7c195.2-47.9,547.4-42.1,746.5,9.6c183.8,47.9,430.7,166.5,535.9,256.5l78.5,67l285.2,5.8c237.4,5.7,306.3,1.9,402-26.8c149.3-45.9,497.7-63.2,671.8-34.5c189.5,32.5,405.8,107.2,526.4,183.8c122.5,76.6,250.8,153.1,409.6,241.2c246.9,139.7,507.2,459.4,604.8,744.6c57.4,168.4,63.2,493.8,9.6,650.8c-126.3,371.3-375.1,658.4-719.7,828.8c-157,76.6-166.5,86.1-239.3,212.5c-143.6,248.8-417.3,495.7-666.1,602.9c-114.8,49.8-348.4,97.6-472.8,97.6c-369.4,0-823-225.9-1083.4-541.7c-61.3-74.7-82.3-90-122.5-80.4c-26.8,5.7-122.5,15.3-212.5,21.1l-164.6,13.4l-91.9,122.5c-206.7,279.4-568.5,465.1-899.6,463.2C3895.8,5018.1,3780.9,5000.9,3702.5,4981.7z M4248,4558.7c147.4-55.5,277.5-189.5,361.8-371.3c84.2-183.8,130.2-210.6,323.5-176.1c109.1,17.2,149.3,17.2,275.6-13.4c333-76.6,350.3-70.8,490,139.7c114.8,172.3,248.8,290.9,421.1,375.2c264.1,130.1,528.3,128.2,792.4-1.9c199.1-97.6,323.5-227.8,438.3-461.3l91.9-187.6l134-49.8c312-114.8,509.1-269.9,608.7-478.5c214.4-457.5-3.8-968.5-499.6-1163.7c-55.5-23-145.5-78.5-202.9-124.4c-254.6-206.7-687.1-258.4-1079.5-128.3c-164.6,53.6-168.4,53.6-300.5,26.8c-91.9-19.1-195.2-24.9-325.4-19.1c-220.1,11.5-252.7,0-356-124.4c-134-162.7-367.5-245-692.9-245c-225.9,0-409.6,38.3-539.8,114.8c-214.4,126.3-208.6,124.4-402,74.6c-296.7-76.6-650.8-51.7-874.7,61.3c-45.9,23-126.3,88-179.9,145.5c-90,93.8-112.9,107.2-243.1,139.7c-365.6,91.9-606.8,321.6-714,679.5c-49.8,164.6-45.9,459.4,9.6,610.6c114.8,321.6,392.4,560.8,725.4,625.9c141.7,26.8,269.9,15.3,438.3-42.1c135.9-44,229.7-38.3,281.4,17.2c17.2,19.1,45.9,84.2,67,141.7c21.1,59.3,47.9,126.3,59.3,149.3c42.1,78.5,178,212.5,258.4,254.6C3788.6,4620,4050.8,4631.4,4248,4558.7z"/><path  fill="gray" d="M2829.6,669.3c-51.7-51.7-67-82.3-67-137.8c0-124.4,53.6-174.2,264.1-237.3c1607.8-493.8,3167.8-495.7,4557.4-7.6c164.6,57.4,202.9,78.5,233.5,128.2c57.4,93.8,47.9,176.1-28.7,252.7c-82.3,82.3-116.7,82.3-352.2,0C6994.6,514.3,6542.9,410.9,6074,357.3c-352.2-40.2-1188.6-28.7-1540.8,19.1c-357.9,49.8-865.2,158.9-1194.4,254.6C2929.2,751.6,2913.9,753.6,2829.6,669.3z"/><path fill="gray"  d="M2485.1-299.2c-137.8-59.3-174.2-229.7-72.7-331.1c53.6-53.6,82.3-61.3,380.9-111C4020.2-948,5205-946.1,6075.9-739.4c199.1,47.9,250.8,67,294.8,112.9c93.8,97.6,57.4,256.5-74.7,321.6c-45.9,23-80.4,19.1-294.8-32.5c-576.1-137.8-1238.4-181.8-1984.9-135.9c-484.3,30.6-740.7,63.2-1435.5,179.9C2550.2-287.7,2506.2-289.6,2485.1-299.2z"/><path  fill="gray" d="M2439.2-1346.2c-112.9-80.4-112.9-264.2,1.9-333.1c120.6-72.7,622.1-174.2,1050.8-212.5c327.3-28.7,1081.4-11.5,1357.1,30.6c252.7,38.3,576.1,114.8,650.8,153.1c122.5,63.2,145.5,223.9,44,323.5c-63.2,63.2-132.1,65.1-373.2,3.8c-304.3-78.5-558.9-109.1-983.8-120.6c-557-15.3-955.1,24.9-1410.7,137.8C2555.9-1307.9,2500.4-1304.1,2439.2-1346.2z"/><path  fill="gray" d="M3055.5-2368.3c-103.4-61.3-116.7-222-26.8-312c36.4-38.3,373.2-143.6,662.3-206.7c223.9-49.8,679.5-68.9,949.4-38.3c227.8,26.8,612.5,95.7,878.6,156.9C5746.7-2714.7,5806-2665,5806-2531c0,97.6-53.6,170.4-141.6,193.3c-28.7,5.8-174.2-15.3-359.9-57.4c-432.6-95.7-635.5-126.3-924.5-137.8c-302.4-13.4-513,15.3-913,126.3c-153.1,42.1-296.7,76.6-315.8,76.6C3132.1-2330,3090-2347.2,3055.5-2368.3z"/><path  fill="gray" d="M3497.7-3371.3c-130.2-57.4-164.6-214.4-68.9-315.8c57.4-63.2,271.8-134,654.6-214.4c283.3-61.3,800.1-61.3,1018.3-1.9c212.5,57.4,432.6,170.4,476.6,241.2c67,111,26.8,243.1-90,290.9c-76.6,32.5-103.4,26.8-266.1-51.7c-354.1-172.3-782.9-170.4-1383.9,1.9c-143.6,42.1-266.1,76.6-271.8,74.7C3560.8-3346.4,3530.2-3357.9,3497.7-3371.3z"/><path  fill="gray" d="M4043.2-4437.4c-80.4-88.1-78.5-189.5,9.6-277.5l65.1-65.1h467c428.8,0,470.8,3.8,526.4,38.3c109.1,65.1,116.7,231.6,15.3,321.5c-49.8,42.1-59.3,42.1-539.8,42.1h-488.1L4043.2-4437.4z"/></g></g>
</svg>